<svg width="24" height="24" viewBox="0 0 24 24" fill="none" xmlns="http://www.w3.org/2000/svg">
<path d="M21.75 17.25V5.25C21.75 4.85218 21.592 4.47064 21.3107 4.18934C21.0294 3.90804 20.6478 3.75 20.25 3.75H3.75C3.35218 3.75 2.97064 3.90804 2.68934 4.18934C2.40804 4.47064 2.25 4.85218 2.25 5.25V18.75C2.25 19.1478 2.40804 19.5294 2.68934 19.8107C2.97064 20.092 3.35218 20.25 3.75 20.25H20.25C20.6478 20.25 21.0294 20.092 21.3107 19.8107C21.592 19.5294 21.75 19.1478 21.75 18.75V17.25ZM20.25 5.25V15.4406L17.5594 12.75C17.277 12.4717 16.8964 12.3158 16.5 12.3158C16.1036 12.3158 15.723 12.4717 15.4406 12.75L13.5 14.6906L9.30938 10.5C9.02698 10.2217 8.64645 10.0658 8.25 10.0658C7.85355 10.0658 7.47302 10.2217 7.19062 10.5L3.75 13.9406V5.25H20.25ZM20.25 18.75H3.75V16.0594L8.25 11.5594L12.4406 15.75C12.5792 15.89 12.7442 16.0012 12.9261 16.077C13.1079 16.1529 13.303 16.192 13.5 16.192C13.697 16.192 13.8921 16.1529 14.0739 16.077C14.2558 16.0012 14.4208 15.89 14.5594 15.75L16.5 13.8094L20.25 17.5594V18.75ZM13.8281 10.1719C13.7233 10.0674 13.6403 9.94321 13.584 9.8064C13.5277 9.66959 13.4991 9.52295 13.5 9.375C13.5 9.07663 13.6185 8.79048 13.8295 8.5795C14.0405 8.36853 14.3266 8.25 14.625 8.25C14.9234 8.25 15.2095 8.36853 15.4205 8.5795C15.6315 8.79048 15.75 9.07663 15.75 9.375C15.75 9.67337 15.6315 9.95952 15.4205 10.1705C15.2095 10.3815 14.9234 10.5 14.625 10.5C14.327 10.4977 14.0414 10.3801 13.8281 10.1719Z" fill="#CECECE"/>
</svg>
